/* XPM */
static char * bitcoin32_xpm[] = {
"32 32 426 2",
"  	c None",
". 	c #56C4F0",
"+ 	c #5DB9E9",
"@ 	c #45C1EF",
"# 	c #47ACE1",
"$ 	c #649FD5",
"% 	c #3BBEEF",
"& 	c #57AEE1",
"* 	c #609AD3",
"= 	c #6F8AC6",
"- 	c #787EBD",
"; 	c #65CDF0",
"> 	c #2DBCEE",
", 	c #58ACE0",
"' 	c #659BD2",
") 	c #728AC5",
"! 	c #767BBB",
"~ 	c #7B6DB1",
"{ 	c #8766AC",
"] 	c #49C8F0",
"^ 	c #3ABBEC",
"/ 	c #5AAADE",
"( 	c #6898D1",
"_ 	c #7289C4",
": 	c #7A7BBA",
"< 	c #7F6DB1",
"[ 	c #8663AA",
"} 	c #8F5AA5",
"| 	c #9E59A3",
"1 	c #2AC4F1",
"2 	c #43BAEB",
"3 	c #5BA7DC",
"4 	c #6897CF",
"5 	c #7486C3",
"6 	c #7979B9",
"7 	c #806CB0",
"8 	c #8963AA",
"9 	c #935CA6",
"0 	c #9C56A2",
"a 	c #A74F9E",
"b 	c #B3549F",
"c 	c #BB54A0",
"d 	c #17C3F2",
"e 	c #4CB9EA",
"f 	c #5CA6DB",
"g 	c #6995CE",
"h 	c #7585C2",
"i 	c #7A78B8",
"j 	c #806BB0",
"k 	c #8962AA",
"l 	c #945CA5",
"m 	c #9F57A2",
"n 	c #A954A0",
"o 	c #B14E9D",
"p 	c #BB4A9B",
"q 	c #BB4B9B",
"r 	c #B64298",
"s 	c #C561A5",
"t 	c #53C9EE",
"u 	c #26C3F3",
"v 	c #4FB8E9",
"w 	c #5FA4DA",
"x 	c #6B93CC",
"y 	c #7584C1",
"z 	c #7A76B7",
"A 	c #826AAF",
"B 	c #8B61A9",
"C 	c #955AA4",
"D 	c #A057A2",
"E 	c #AA55A1",
"F 	c #B34A9B",
"G 	c #BB4398",
"H 	c #BB579F",
"I 	c #BB529E",
"J 	c #B84499",
"K 	c #3DC6EE",
"L 	c #37C3F2",
"M 	c #4FB6E7",
"N 	c #61A2D8",
"O 	c #6D92CB",
"P 	c #7582C0",
"Q 	c #7A75B6",
"R 	c #8269AE",
"S 	c #8C61A9",
"T 	c #965BA5",
"U 	c #9F54A1",
"V 	c #AB4C9C",
"W 	c #B659A0",
"X 	c #BD62A6",
"Y 	c #B73E96",
"Z 	c #35C5EE",
"` 	c #3EC2F1",
" .	c #51B3E5",
"..	c #619FD6",
"+.	c #6E90CA",
"@.	c #7680BE",
"#.	c #7B74B6",
"$.	c #8468AE",
"%.	c #8B5DA7",
"&.	c #9557A3",
"*.	c #A457A2",
"=.	c #A95BA4",
"-.	c #B4469A",
";.	c #BB499B",
">.	c #BC5CA3",
",.	c #58C9E9",
"'.	c #35C5EF",
").	c #3FC2F1",
"!.	c #54B1E4",
"~.	c #629ED5",
"{.	c #6E8EC9",
"].	c #777FBE",
"^.	c #7B72B5",
"/.	c #8263AB",
"(.	c #8E5EA7",
"_.	c #9C69AD",
":.	c #A04299",
"<.	c #BB519E",
"[.	c #BB4C9C",
"}.	c #55C9EA",
"|.	c #31C5F0",
"1.	c #44BFEF",
"2.	c #56AFE2",
"3.	c #669CD4",
"4.	c #708DC8",
"5.	c #757CBB",
"6.	c #796FB2",
"7.	c #896AAE",
"8.	c #B6509E",
"9.	c #C05DA3",
"0.	c #9077B6",
"a.	c #8F4F9F",
"b.	c #AB529F",
"c.	c #BB4F9D",
"d.	c #44C6EA",
"e.	c #39C6F0",
"f.	c #45BEEE",
"g.	c #57ADE1",
"h.	c #6498D1",
"i.	c #6E88C5",
"j.	c #7D80BE",
"k.	c #A458A3",
"l.	c #AB4F9E",
"m.	c #B64A9B",
"n.	c #747BBB",
"o.	c #7A5BA6",
"p.	c #9958A3",
"q.	c #AE529F",
"r.	c #B9479A",
"s.	c #BE5FA5",
"t.	c #65CCE7",
"u.	c #46C6EB",
"v.	c #3CC6F3",
"w.	c #44BBEC",
"x.	c #58A8DD",
"y.	c #699BD2",
"z.	c #9B58A3",
"A.	c #A3519F",
"B.	c #AE4D9D",
"C.	c #B955A0",
"D.	c #7375B7",
"E.	c #8563AB",
"F.	c #9A56A2",
"G.	c #B0529F",
"H.	c #BB479A",
"I.	c #5BC9E6",
"J.	c #42C6EE",
"K.	c #2AC5F4",
"L.	c #45BAEA",
"M.	c #8967AD",
"N.	c #8C57A3",
"O.	c #9A53A0",
"P.	c #A756A1",
"Q.	c #AF4499",
"R.	c #BB66A5",
"S.	c #69C0EC",
"T.	c #5E90CB",
"U.	c #7975B6",
"V.	c #8862A9",
"W.	c #9D56A2",
"X.	c #B1509E",
"Y.	c #BD509E",
"Z.	c #50C8E9",
"`.	c #3FC4ED",
" +	c #54C0E3",
".+	c #797CBB",
"++	c #7C6BB0",
"@+	c #8460A9",
"#+	c #915DA6",
"$+	c #9E58A3",
"%+	c #A754A1",
"&+	c #B14B9C",
"*+	c #3FB0E4",
"=+	c #6A8EC9",
"-+	c #7B73B5",
";+	c #895FA8",
">+	c #A056A2",
",+	c #B34B9C",
"'+	c #BE56A0",
")+	c #73CFE7",
"!+	c #46C4E5",
"~+	c #6C9AD1",
"{+	c #7086C3",
"]+	c #7676B8",
"^+	c #7E6CB0",
"/+	c #8964AB",
"(+	c #A84D9D",
"_+	c #B457A0",
":+	c #1EC3F1",
"<+	c #53AFE2",
"[+	c #7C6FB3",
"}+	c #8B5EA7",
"|+	c #A356A1",
"1+	c #B44A9B",
"2+	c #C05EA4",
"3+	c #61C2EE",
"4+	c #59A7DC",
"5+	c #6591CC",
"6+	c #7385C2",
"7+	c #7B77B8",
"8+	c #816CB0",
"9+	c #8A62A9",
"0+	c #A058A3",
"a+	c #A94B9C",
"b+	c #B560A4",
"c+	c #4AC6E7",
"d+	c #3AC6F3",
"e+	c #59ADE0",
"f+	c #7089C5",
"g+	c #7D6EB2",
"h+	c #8D5DA6",
"i+	c #A353A0",
"j+	c #B6489B",
"k+	c #3EC5F2",
"l+	c #41B4E7",
"m+	c #5AA3D9",
"n+	c #6D93CC",
"o+	c #7A75B7",
"p+	c #816AAF",
"q+	c #955BA5",
"r+	c #A054A1",
"s+	c #AA4B9B",
"t+	c #64CBE4",
"u+	c #4DC7E8",
"v+	c #3BC6F4",
"w+	c #5BA8DD",
"x+	c #7386C2",
"y+	c #7E6BB0",
"z+	c #905CA6",
"A+	c #A6509E",
"B+	c #B8519E",
"C+	c #56C9E8",
"D+	c #3AC5EF",
"E+	c #34C3F2",
"F+	c #51B5E7",
"G+	c #60A2D8",
"H+	c #6D91CB",
"I+	c #7682C0",
"J+	c #8C60A8",
"K+	c #965AA4",
"L+	c #A14F9E",
"M+	c #AE569F",
"N+	c #43C6E9",
"O+	c #39C4F3",
"P+	c #5FA3D9",
"Q+	c #7482C0",
"R+	c #8068AE",
"S+	c #925AA4",
"T+	c #A84C9D",
"U+	c #BA5BA3",
"V+	c #63CBE5",
"W+	c #54C8E4",
"X+	c #4FC7E8",
"Y+	c #41C6EF",
"Z+	c #3FC3F2",
"`+	c #62A1D7",
" @	c #7681BF",
".@	c #7C73B5",
"+@	c #8368AD",
"@@	c #8D60A8",
"#@	c #985BA5",
"$@	c #A1499B",
"%@	c #B368A9",
"&@	c #51C8EB",
"*@	c #2ABFF0",
"=@	c #64A0D6",
"-@	c #747FBE",
";@	c #8267AD",
">@	c #AB4C9D",
",@	c #5AC9E5",
"'@	c #4AC7EA",
")@	c #3EC6F0",
"!@	c #53B1E3",
"~@	c #639FD5",
"{@	c #6F8EC8",
"]@	c #767FBE",
"^@	c #7C72B4",
"/@	c #8467AD",
"(@	c #8E5FA8",
"_@	c #9858A3",
":@	c #A54F9D",
"<@	c #32BDEE",
"[@	c #669CD3",
"}@	c #767CBC",
"|@	c #8365AC",
"1@	c #9756A2",
"2@	c #AE509E",
"3@	c #4FC8EB",
"4@	c #34C5F0",
"5@	c #42C1F0",
"6@	c #57AFE2",
"7@	c #639DD4",
"8@	c #708CC7",
"9@	c #777EBC",
"0@	c #7D70B3",
"a@	c #8566AC",
"b@	c #905FA8",
"c@	c #9953A1",
"d@	c #A858A0",
"e@	c #4EBCEB",
"f@	c #6396CF",
"g@	c #787ABA",
"h@	c #8564AB",
"i@	c #98509F",
"j@	c #B15BA3",
"k@	c #57C4E6",
"l@	c #33C5F1",
"m@	c #42BDED",
"n@	c #56ABDF",
"o@	c #669BD3",
"p@	c #718AC6",
"q@	c #787DBC",
"r@	c #7E6FB2",
"s@	c #8665AC",
"t@	c #915FA7",
"u@	c #994E9E",
"v@	c #6393CD",
"w@	c #7976B8",
"x@	c #8761A9",
"y@	c #9B4D9E",
"z@	c #2CC5F3",
"A@	c #35BEEC",
"B@	c #54A7DD",
"C@	c #6397D0",
"D@	c #7389C5",
"E@	c #797BBB",
"F@	c #7F6EB1",
"G@	c #8765AB",
"H@	c #9059A4",
"I@	c #9B53A0",
"J@	c #6C97CF",
"K@	c #7772B5",
"L@	c #885EA8",
"M@	c #9E509F",
"N@	c #62CBE8",
"O@	c #37C5F0",
"P@	c #41BEEE",
"Q@	c #53A3DA",
"R@	c #7999C8",
"S@	c #6E83C1",
"T@	c #7779B9",
"U@	c #8864AB",
"V@	c #8F54A2",
"W@	c #A561A7",
"X@	c #8A59A4",
"Y@	c #A557A1",
"Z@	c #55C9E9",
"`@	c #48BDED",
" #	c #5DA2D8",
".#	c #6889C6",
"+#	c #7B7AB7",
"@#	c #7A89C4",
"##	c #7573B6",
"$#	c #7F6BB0",
"%#	c #8A64AB",
"&#	c #9153A1",
"*#	c #A867A8",
"=#	c #7773B5",
"-#	c #8C51A0",
";#	c #AC5FA4",
">#	c #4EC7E9",
",#	c #49BAEB",
"'#	c #63A1D7",
")#	c #718CC7",
"!#	c #7473B6",
"~#	c #7E66AD",
"{#	c #9758A2",
"]#	c #867AB9",
"^#	c #8A509F",
"/#	c #6FCEE5",
"(#	c #39C6F4",
"_#	c #4BB8E9",
":#	c #639ED5",
"<#	c #7289C5",
"[#	c #8064AB",
"}#	c #8D5AA5",
"|#	c #8958A4",
"1#	c #995EA3",
"2#	c #935FA5",
"3#	c #65CBE5",
"4#	c #44C6EB",
"5#	c #36C6F4",
"6#	c #4EB5E7",
"7#	c #7488C4",
"8#	c #8567AD",
"9#	c #925CA6",
"0#	c #9D519F",
"a#	c #B255A0",
"b#	c #3FC6EC",
"c#	c #50B2E5",
"d#	c #6093CD",
"e#	c #6E80BF",
"f#	c #7B72B4",
"g#	c #8462AA",
"h#	c #8E52A1",
"i#	c #A053A0",
"j#	c #B64599",
"k#	c #81A9D9",
"l#	c #8792C9",
"m#	c #7F72B4",
"n#	c #8A68AD",
"o#	c #A26CAE",
"p#	c #A65BA4",
"q#	c #B054A0",
"r#	c #BD519E",
"s#	c #BA4B9B",
"                                    . +                         ",
"                                    @ # $                       ",
"                                    % & * = -                   ",
"                                  ; > , ' ) ! ~ {               ",
"                                  ] ^ / ( _ : < [ } |           ",
"                                  1 2 3 4 5 6 7 8 9 0 a b       ",
"                        c         d e f g h i j k l m n o p q   ",
"                      r s       t u v w x y z A B C D E F G H   ",
"                    I J         K L M N O P Q R S T U V W       ",
"                  X Y c         Z `  ...+.@.#.$.%.&.*.          ",
"                =.-.;.>.      ,.'.).!.~.{.].^./.(.              ",
"              _.:.<.[.        }.|.1.2.3.4.5.6.7.            8.9.",
"            0.a.b.c.c.        d.e.f.g.h.i.j.            k.l.m.  ",
"          n.o.p.q.r.s.      t.u.v.w.x.y.              z.A.B.C.  ",
"          D.E.F.G.H.        I.J.K.L.              M.N.O.P.Q.R.  ",
"      S.T.U.V.W.X.Y.        Z.`. +            .+++@+#+$+%+&+    ",
"      *+=+-+;+>+,+'+      )+!+            ~+{+]+^+/+9 $+(+_+    ",
"    :+<+4.[+}+|+1+2+                  3+4+5+6+7+8+9+l 0+a+b+    ",
"  c+d+e+f+g+h+i+j+                  k+l+m+n+y o+p+B q+r+s+      ",
"t+u+v+w+x+y+z+A+B+              C+D+E+F+G+H+I+#.R J+K+L+M+      ",
"  N+O+P+Q+R+S+T+U+          V+W+X+Y+Z+ .`++. @.@+@@@#@$@%@      ",
"  &@*@=@-@;@C >@              ,@'@)@).!@~@{@]@^@/@(@_@:@        ",
"    <@[@}@|@1@2@                3@4@5@6@7@8@9@0@a@b@c@d@        ",
"    e@f@g@h@i@j@      k@          l@m@n@o@p@q@r@s@t@u@          ",
"      v@w@x@y@        z@A@            B@C@D@E@F@G@H@I@          ",
"      J@K@L@M@      N@O@P@Q@R@          J@S@T@< U@V@W@          ",
"        K@X@Y@      Z@O@`@ #.#+#          @###$#%#&#*#          ",
"        =#-#;#      >#d+,#'#)#!#R             ~#L@{#            ",
"        ]#^#      /#d.(#_#:#<#7+[#}#            |#1#            ",
"          2#      3#4#5#6#[@7##.8#9#0#a#                        ",
"                  W+b#5#c#d#e#f#g#h#i#B.j#                      ",
"                          k#l#m#n#o#p#q#r#s#                    "};
