/* XPM */
static char * bitcoin16_xpm[] = {
"16 16 115 2",
"  	c None",
". 	c #51BFED",
"+ 	c #42B6E9",
"@ 	c #6691CB",
"# 	c #7A74B6",
"$ 	c #26C3EB",
"% 	c #43B4E7",
"& 	c #6E8EC9",
"* 	c #7A6FB3",
"= 	c #8A5BA6",
"- 	c #A655A1",
"; 	c #2EC4ED",
"> 	c #49B0E4",
", 	c #708BC6",
"' 	c #7D6EB2",
") 	c #8F5CA6",
"! 	c #A24C9D",
"~ 	c #B83F97",
"{ 	c #BE65A5",
"] 	c #BF4298",
"^ 	c #34C5F0",
"/ 	c #54AEE1",
"( 	c #7188C4",
"_ 	c #7C6BB0",
": 	c #8F56A3",
"< 	c #AE539F",
"[ 	c #AC3D96",
"} 	c #CA3393",
"| 	c #2CC5F3",
"1 	c #5AAADE",
"2 	c #7081BF",
"3 	c #8265AC",
"4 	c #8956A3",
"5 	c #B24499",
"6 	c #42C5E7",
"7 	c #23C4F4",
"8 	c #609ED5",
"9 	c #A5479B",
"0 	c #BE59A2",
"a 	c #6886C4",
"b 	c #8E51A0",
"c 	c #BD4398",
"d 	c #37C4E9",
"e 	c #48BDE7",
"f 	c #7E6AB0",
"g 	c #9354A1",
"h 	c #AD499B",
"i 	c #3EBFED",
"j 	c #6C7EBD",
"k 	c #964F9F",
"l 	c #C43593",
"m 	c #64ACDF",
"n 	c #727BBB",
"o 	c #8162AA",
"p 	c #9851A0",
"q 	c #B155A0",
"r 	c #50C7E6",
"s 	c #3CBAEC",
"t 	c #7578B9",
"u 	c #99499C",
"v 	c #CC3794",
"w 	c #4FC8EB",
"x 	c #39C0F0",
"y 	c #6199D2",
"z 	c #777ABA",
"A 	c #8564AB",
"B 	c #9A4A9C",
"C 	c #B664A5",
"D 	c #67CCE7",
"E 	c #3AB3E7",
"F 	c #7871B4",
"G 	c #A33F97",
"H 	c #5FCAE5",
"I 	c #3DC5EB",
"J 	c #43BCED",
"K 	c #6998D0",
"L 	c #7876B8",
"M 	c #8761A9",
"N 	c #9F4E9D",
"O 	c #4AAEE1",
"P 	c #7968AE",
"Q 	c #B22E91",
"R 	c #3DC6EE",
"S 	c #2BBBED",
"T 	c #6B90CA",
"U 	c #7A75B6",
"V 	c #885AA5",
"W 	c #A459A2",
"X 	c #64B1E1",
"Y 	c #795FA9",
"Z 	c #B92B91",
"` 	c #10C1E9",
" .	c #4BB2E1",
"..	c #5E97D1",
"+.	c #796FB3",
"@.	c #8A55A2",
"#.	c #8259A5",
"$.	c #41C6EC",
"%.	c #47B1E5",
"&.	c #707CBC",
"*.	c #736FB3",
"=.	c #8E54A1",
"-.	c #9668AC",
";.	c #31C4EE",
">.	c #51ABE0",
",.	c #7178B9",
"'.	c #8558A4",
").	c #B14097",
"!.	c #9066AA",
"~.	c #26C3EE",
"{.	c #60ACDF",
"].	c #7C7ABA",
"^.	c #8D5DA6",
"/.	c #AB4C9C",
"(.	c #C54E9B",
"                  .             ",
"                  + @ #         ",
"                $ % & * = -     ",
"                ; > , ' ) ! ~ { ",
"          ]     ^ / ( _ : <     ",
"        [ }     | 1 2 3         ",
"      4 5     6 7 8         9 0 ",
"    a b c     d e       f g h   ",
"  i j k l           m n o p q   ",
"r s t u v       w x y z A B C   ",
"D E F G       H I J K L M N     ",
"  O P Q         R S T U V W     ",
"  X Y Z   `  .      ..+.@.      ",
"    #.    $.%.&.      *.=.      ",
"    -.    ;.>.,.'.).    !.      ",
"          ~.{.].^./.(.          "};
